/* XPM */
static char * nord_xpm[] = {
"64 64 96 2",
"  	c #000FFF",
". 	c #00014D",
"+ 	c #000000",
"@ 	c #0007AE",
"# 	c #0006A1",
"$ 	c #000BDA",
"% 	c #000026",
"& 	c #000DF0",
"* 	c #00000D",
"= 	c #000DEA",
"- 	c #000593",
"; 	c #000CE2",
"> 	c #000483",
", 	c #00025C",
"' 	c #000BD9",
") 	c #000ACC",
"! 	c #000373",
"~ 	c #000FFE",
"{ 	c #000FFC",
"] 	c #000371",
"^ 	c #000AD0",
"/ 	c #000FFD",
"( 	c #000BD8",
"_ 	c #000262",
": 	c #000381",
"< 	c #0009C6",
"[ 	c #000CE1",
"} 	c #000151",
"| 	c #000EF9",
"1 	c #000491",
"2 	c #0008BB",
"3 	c #000DE9",
"4 	c #000140",
"5 	c #000EF6",
"6 	c #00059F",
"7 	c #0007AF",
"8 	c #000DEF",
"9 	c #00002A",
"0 	c #000DF1",
"a 	c #0006AC",
"b 	c #0006A3",
"c 	c #000EF4",
"d 	c #00013B",
"e 	c #000016",
"f 	c #000DEB",
"g 	c #0008B8",
"h 	c #000595",
"i 	c #000EF8",
"j 	c #00014B",
"k 	c #000CE3",
"l 	c #0009C3",
"m 	c #000485",
"n 	c #000FFB",
"o 	c #00025D",
"p 	c #000BDB",
"q 	c #000ACD",
"r 	c #000376",
"s 	c #00026E",
"t 	c #000AD1",
"u 	c #000BD6",
"v 	c #000265",
"w 	c #00037E",
"x 	c #0009C8",
"y 	c #000CDF",
"z 	c #000153",
"A 	c #000EFA",
"B 	c #00048E",
"C 	c #0008BD",
"D 	c #000CE8",
"E 	c #000142",
"F 	c #00059D",
"G 	c #0007B2",
"H 	c #000DEE",
"I 	c #000022",
"J 	c #00002E",
"K 	c #000EF2",
"L 	c #0006AA",
"M 	c #0006A6",
"N 	c #000EF3",
"O 	c #000135",
"P 	c #00001C",
"Q 	c #000DEC",
"R 	c #0007B6",
"S 	c #000598",
"T 	c #000149",
"U 	c #000CE5",
"V 	c #0008C1",
"W 	c #000488",
"X 	c #00025A",
"Y 	c #0009CB",
"Z 	c #00026C",
"` 	c #000AD5",
" .	c #00037C",
"..	c #000BDE",
"+.	c #00048B",
"@.	c #000CE6",
"                                                                                                                                ",
"                                                                                                                                ",
"                                                                                                                                ",
"                                                                                                                                ",
"                                                                                                                                ",
"                                                                                                                                ",
"                                                                                                                                ",
"                                                                                                                                ",
"                                                                                                                                ",
"                                  . + + + + + + + @                                       # + + + + + $                         ",
"                                  . + + + + + + + % &                                     # + + + + + $                         ",
"                                  . + + + + + + + + #                                     # + + + + + $                         ",
"                                  . + + + + + + + + * =                                   # + + + + + $                         ",
"                                  . + + + + + + + + + -                                   # + + + + + $                         ",
"                                  . + + + + + + + + + + ;                                 # + + + + + $                         ",
"                                  . + + + + + + + + + + >                                 # + + + + + $                         ",
"                                  . + + + + + , + + + + + '                               # + + + + + $                         ",
"                                  . + + + + + ) + + + + + ! ~                             # + + + + + $                         ",
"                                  . + + + + + { ] + + + + + ^                             # + + + + + $                         ",
"                                  . + + + + + / ( + + + + + _ {                           # + + + + + $                         ",
"                                  . + + + + + /   : + + + + + <                           # + + + + + $                         ",
"                                  . + + + + + /   [ + + + + + } |                         # + + + + + $                         ",
"                                  . + + + + + /     1 + + + + + 2                         # + + + + + $                         ",
"                                  . + + + + + /     3 * + + + + 4 5                       # + + + + + $                         ",
"                                  . + + + + + /       6 + + + + + 7                       # + + + + + $                         ",
"                                  . + + + + + /       8 % + + + + 9 0                     # + + + + + $                         ",
"                                  . + + + + + /         a + + + + + b                     # + + + + + $                         ",
"                                  . + + + + + /         c d + + + + e f                   # + + + + + $                         ",
"                                  . + + + + + /           g + + + + + h                   # + + + + + $                         ",
"                                  . + + + + + /           i j + + + + + k                 # + + + + + $                         ",
"                                  . + + + + + /             l + + + + + m                 # + + + + + $                         ",
"                                  . + + + + + /             n o + + + + + p               # + + + + + $                         ",
"                                  . + + + + + /               q + + + + + r ~             # + + + + + $                         ",
"                                  . + + + + + /               ~ s + + + + + t             # + + + + + $                         ",
"                                  . + + + + + /                 u + + + + + v /           # + + + + + $                         ",
"                                  . + + + + + /                   w + + + + + x           # + + + + + $                         ",
"                                  . + + + + + /                   y + + + + + z A         # + + + + + $                         ",
"                                  . + + + + + /                     B + + + + + C         # + + + + + $                         ",
"                                  . + + + + + /                     D * + + + + E 5       # + + + + + $                         ",
"                                  . + + + + + /                       F + + + + + G       # + + + + + $                         ",
"                                  . + + + + + /                       H I + + + + J K     # + + + + + $                         ",
"                                  . + + + + + /                         L + + + + + M     # + + + + + $                         ",
"                                  . + + + + + /                         N O + + + + P Q   # + + + + + $                         ",
"                                  . + + + + + /                           R + + + + + S   # + + + + + $                         ",
"                                  . + + + + + /                           i T + + + + + U # + + + + + $                         ",
"                                  . + + + + + /                             V + + + + + W # + + + + + $                         ",
"                                  . + + + + + /                             n X + + + + + o + + + + + $                         ",
"                                  . + + + + + /                               Y + + + + + + + + + + + $                         ",
"                                  . + + + + + /                               / Z + + + + + + + + + + $                         ",
"                                  . + + + + + /                                 ` + + + + + + + + + + $                         ",
"                                  . + + + + + /                                    .+ + + + + + + + + $                         ",
"                                  . + + + + + /                                   ..+ + + + + + + + + $                         ",
"                                  . + + + + + /                                     +.+ + + + + + + + $                         ",
"                                  . + + + + + /                                     @.+ + + + + + + + $                         ",
"                                                                                                                                ",
"                                                                                                                                ",
"                                                                                                                                ",
"                                                                                                                                ",
"                                                                                                                                ",
"                                                                                                                                ",
"                                                                                                                                ",
"                                                                                                                                ",
"                                                                                                                                ",
"                                                                                                                                "};
