/* XPM */
static char * Sud_xpm[] = {
"64 64 127 2",
"  	c #FF0000",
". 	c #ED0000",
"+ 	c #D00000",
"@ 	c #AD0000",
"# 	c #840000",
"$ 	c #6D0000",
"% 	c #550000",
"& 	c #2E0000",
"* 	c #260000",
"= 	c #450000",
"- 	c #580000",
"; 	c #710000",
"> 	c #900000",
", 	c #A80000",
"' 	c #BE0000",
") 	c #DA0000",
"! 	c #F20000",
"~ 	c #FA0000",
"{ 	c #CC0000",
"] 	c #7D0000",
"^ 	c #000000",
"/ 	c #4D0000",
"( 	c #970000",
"_ 	c #C70000",
": 	c #EB0000",
"< 	c #D80000",
"[ 	c #E90000",
"} 	c #FB0000",
"| 	c #A20000",
"1 	c #FC0000",
"2 	c #8A0000",
"3 	c #A50000",
"4 	c #220000",
"5 	c #8E0000",
"6 	c #C50000",
"7 	c #DF0000",
"8 	c #F80000",
"9 	c #FE0000",
"0 	c #F90000",
"a 	c #F10000",
"b 	c #E80000",
"c 	c #D10000",
"d 	c #B30000",
"e 	c #8B0000",
"f 	c #DB0000",
"g 	c #160000",
"h 	c #A70000",
"i 	c #F40000",
"j 	c #AA0000",
"k 	c #790000",
"l 	c #D60000",
"m 	c #D40000",
"n 	c #8C0000",
"o 	c #EA0000",
"p 	c #E70000",
"q 	c #CA0000",
"r 	c #BB0000",
"s 	c #720000",
"t 	c #940000",
"u 	c #D70000",
"v 	c #5D0000",
"w 	c #E00000",
"x 	c #660000",
"y 	c #7F0000",
"z 	c #B40000",
"A 	c #9B0000",
"B 	c #560000",
"C 	c #C80000",
"D 	c #9E0000",
"E 	c #EF0000",
"F 	c #0D0000",
"G 	c #E40000",
"H 	c #9C0000",
"I 	c #7A0000",
"J 	c #C00000",
"K 	c #3B0000",
"L 	c #420000",
"M 	c #8D0000",
"N 	c #B80000",
"O 	c #F30000",
"P 	c #5A0000",
"Q 	c #EC0000",
"R 	c #750000",
"S 	c #C40000",
"T 	c #F50000",
"U 	c #350000",
"V 	c #B90000",
"W 	c #E50000",
"X 	c #9A0000",
"Y 	c #E30000",
"Z 	c #990000",
"` 	c #4F0000",
" .	c #2A0000",
"..	c #CD0000",
"+.	c #AC0000",
"@.	c #800000",
"#.	c #1C0000",
"$.	c #FD0000",
"%.	c #E60000",
"&.	c #C20000",
"*.	c #850000",
"=.	c #380000",
"-.	c #F70000",
";.	c #600000",
">.	c #5F0000",
",.	c #B60000",
"'.	c #A30000",
").	c #620000",
"!.	c #A00000",
"~.	c #DE0000",
"{.	c #C90000",
"].	c #6A0000",
"^.	c #F00000",
"/.	c #C10000",
"(.	c #F60000",
"_.	c #810000",
":.	c #910000",
"<.	c #AB0000",
"[.	c #CF0000",
"}.	c #EE0000",
"|.	c #CE0000",
"1.	c #490000",
"2.	c #AF0000",
"3.	c #DD0000",
"4.	c #3D0000",
"5.	c #7E0000",
"6.	c #BD0000",
"                                                                                                                                ",
"                                                                                                                                ",
"                                                                                                                                ",
"                                                                                                                                ",
"                                                                                                                                ",
"                                                                                                                                ",
"                                                                                                                                ",
"                                                                                                                                ",
"                                                . + @ # $ % & * = - ; > , ' ) !                                                 ",
"                                          ~ { ] ^ ^ ^ ^ ^ ^ ^ ^ ^ ^ ^ ^ ^ ^ ^ ^ / ( _ :                                         ",
"                                        < - ^ ^ ^ ^ ^ ^ ^ ^ ^ ^ ^ ^ ^ ^ ^ ^ ^ ^ ^ ^ ^ ^ [                                       ",
"                                    } | ^ ^ ^ ^ ^ ^ ^ ^ ^ ^ ^ ^ ^ ^ ^ ^ ^ ^ ^ ^ ^ ^ ^ ^ [                                       ",
"                                  1 2 ^ ^ ^ ^ ^ ^ ^ ^ ^ ^ ^ ^ ^ ^ ^ ^ ^ ^ ^ ^ ^ ^ ^ ^ ^ [                                       ",
"                                  3 ^ ^ ^ ^ ^ ^ ^ 4 5 6 7 ! 8 9 0 a b c d e & ^ ^ ^ ^ ^ [                                       ",
"                                f ^ ^ ^ ^ ^ ^ g h i                         } ) j / ^ ^ [                                       ",
"                                k ^ ^ ^ ^ ^ & l                                   1 m n o                                       ",
"                              p ^ ^ ^ ^ ^ ^ q                                                                                   ",
"                              r ^ ^ ^ ^ ^ s                                                                                     ",
"                              t ^ ^ ^ ^ ^ '                                                                                     ",
"                              ; ^ ^ ^ ^ ^ u                                                                                     ",
"                              v ^ ^ ^ ^ ^ w                                                                                     ",
"                              x ^ ^ ^ ^ ^ l                                                                                     ",
"                              y ^ ^ ^ ^ ^ z                                                                                     ",
"                              A ^ ^ ^ ^ ^ B ~                                                                                   ",
"                              C ^ ^ ^ ^ ^ ^ D 9                                                                                 ",
"                              E F ^ ^ ^ ^ ^ ^ y G                                                                               ",
"                                H ^ ^ ^ ^ ^ ^ ^ ^ I J o 9                                                                       ",
"                                . K ^ ^ ^ ^ ^ ^ ^ ^ ^ ^ L M N < O                                                               ",
"                                  < F ^ ^ ^ ^ ^ ^ ^ ^ ^ ^ ^ ^ ^ ^ P D q Q                                                       ",
"                                    < = ^ ^ ^ ^ ^ ^ ^ ^ ^ ^ ^ ^ ^ ^ ^ ^ ^ R S T                                                 ",
"                                      E t ^ ^ ^ ^ ^ ^ ^ ^ ^ ^ ^ ^ ^ ^ ^ ^ ^ ^ U V ~                                             ",
"                                          W X & ^ ^ ^ ^ ^ ^ ^ ^ ^ ^ ^ ^ ^ ^ ^ ^ ^ - Y                                           ",
"                                              8 { Z ` ^ ^ ^ ^ ^ ^ ^ ^ ^ ^ ^ ^ ^ ^ ^  .c                                         ",
"                                                      Q ..+.@.U ^ ^ ^ ^ ^ ^ ^ ^ ^ ^ ^ #.7                                       ",
"                                                              $.%.&.*.F ^ ^ ^ ^ ^ ^ ^ ^ / T                                     ",
"                                                                      a @  .^ ^ ^ ^ ^ ^ ^ d                                     ",
"                                                                          o $ ^ ^ ^ ^ ^ ^ =.-.                                  ",
"                                                                            i ;.^ ^ ^ ^ ^ ^ l                                   ",
"                                                                              u ^ ^ ^ ^ ^ ^ @                                   ",
"                                                                                >.^ ^ ^ ^ ^ 2                                   ",
"                                                                                | ^ ^ ^ ^ ^ R                                   ",
"                                                                                ,.^ ^ ^ ^ ^ v                                   ",
"                                                                                ,.^ ^ ^ ^ ^ x                                   ",
"                                                                                '.^ ^ ^ ^ ^ y                                   ",
"                                                                                ).^ ^ ^ ^ ^ !.                                  ",
"                                                                              ~.^ ^ ^ ^ ^ ^ C                                   ",
"                              , {.}                                         ~ ].^ ^ ^ ^ ^ F ^.                                  ",
"                              n ^ % /.(.                                  -._.^ ^ ^ ^ ^ ^ 5                                     ",
"                              n ^ ^ ^ 4 :.+ 0                         $...% ^ ^ ^ ^ ^ ^ g W                                     ",
"                              n ^ ^ ^ ^ ^ ^ * I <.[.W }.(.9 ~ i p |.h 1.^ ^ ^ ^ ^ ^ ^ ^ z                                       ",
"                              n ^ ^ ^ ^ ^ ^ ^ ^ ^ ^ ^ ^ ^ ^ ^ ^ ^ ^ ^ ^ ^ ^ ^ ^ ^ ^ ^ X 9                                       ",
"                              n ^ ^ ^ ^ ^ ^ ^ ^ ^ ^ ^ ^ ^ ^ ^ ^ ^ ^ ^ ^ ^ ^ ^ ^ ^ ^ 2.9                                         ",
"                              T _ # F ^ ^ ^ ^ ^ ^ ^ ^ ^ ^ ^ ^ ^ ^ ^ ^ ^ ^ ^ ^ ^ s 3.                                            ",
"                                    ! {.A / ^ ^ ^ ^ ^ ^ ^ ^ ^ ^ ^ ^ ^ ^ ^ & t < 9                                               ",
"                                            [ + ,.( R >.= g 4 4.;.5.D 6.3.~                                                     ",
"                                                                                                                                ",
"                                                                                                                                ",
"                                                                                                                                ",
"                                                                                                                                ",
"                                                                                                                                ",
"                                                                                                                                ",
"                                                                                                                                ",
"                                                                                                                                ",
"                                                                                                                                "};
