/* XPM */
static char * west_xpm[] = {
"64 64 117 2",
"  	c #0FA400",
". 	c #034A00",
"+ 	c #000000",
"@ 	c #0A8600",
"# 	c #013400",
"$ 	c #0C9300",
"% 	c #0E9F00",
"& 	c #000500",
"* 	c #0D9800",
"= 	c #077000",
"- 	c #066B00",
"; 	c #087B00",
"> 	c #0B8A00",
", 	c #023600",
"' 	c #0B8B00",
") 	c #024100",
"! 	c #098100",
"~ 	c #045B00",
"{ 	c #056500",
"] 	c #000A00",
"^ 	c #0E9C00",
"/ 	c #056400",
"( 	c #012400",
"_ 	c #0FA300",
": 	c #034B00",
"< 	c #0A8200",
"[ 	c #0D9900",
"} 	c #077100",
"| 	c #023800",
"1 	c #045A00",
"2 	c #066600",
"3 	c #013100",
"4 	c #034C00",
"5 	c #0A8300",
"6 	c #0E9E00",
"7 	c #056200",
"8 	c #0D9A00",
"9 	c #034800",
"0 	c #097F00",
"a 	c #023B00",
"b 	c #076E00",
"c 	c #0D9600",
"d 	c #066700",
"e 	c #0EA000",
"f 	c #000E00",
"g 	c #0B8900",
"h 	c #012C00",
"i 	c #012500",
"j 	c #0A8400",
"k 	c #034D00",
"l 	c #0E9D00",
"m 	c #055E00",
"n 	c #077200",
"o 	c #034500",
"p 	c #097C00",
"q 	c #023D00",
"r 	c #0B8C00",
"s 	c #098200",
"t 	c #066C00",
"u 	c #0C9400",
"v 	c #066900",
"w 	c #0A8700",
"x 	c #0A8500",
"y 	c #034E00",
"z 	c #023700",
"A 	c #0E9B00",
"B 	c #077300",
"C 	c #024200",
"D 	c #087A00",
"E 	c #024000",
"F 	c #0C9100",
"G 	c #066A00",
"H 	c #001200",
"I 	c #066500",
"J 	c #0FA200",
"K 	c #011E00",
"L 	c #034F00",
"M 	c #045600",
"N 	c #023F00",
"O 	c #087700",
"P 	c #0B8D00",
"Q 	c #0C8F00",
"R 	c #055C00",
"S 	c #0FA100",
"T 	c #001700",
"U 	c #035000",
"V 	c #045200",
"W 	c #077400",
"X 	c #024400",
"Y 	c #0EA100",
"Z 	c #001500",
"` 	c #0A8800",
" .	c #045100",
"..	c #023900",
"+.	c #034600",
"@.	c #0B8E00",
"#.	c #023A00",
"$.	c #034900",
"%.	c #087500",
"&.	c #013300",
"*.	c #0C8E00",
"=.	c #056300",
"-.	c #076F00",
";.	c #098000",
">.	c #035100",
",.	c #045300",
"'.	c #0D9700",
").	c #087600",
"!.	c #045700",
"~.	c #013000",
"{.	c #056100",
"].	c #001A00",
"^.	c #045400",
"/.	c #066800",
"(.	c #055F00",
"_.	c #097D00",
":.	c #045500",
"                                                                                                                                ",
"                                                                                                                                ",
"                                                                                                                                ",
"                                                                                                                                ",
"                                                                                                                                ",
"                                                                                                                                ",
"                                                                                                                                ",
"                                                                                                                                ",
"                                                                                                                                ",
"                                                                                                                                ",
"                                                                                                                                ",
"        . + + + + + @                                     # + + + + + + $                                   % & + + + + + *     ",
"        = + + + + + -                                   * + + + + + + + ;                                   > + + + + + ,       ",
"        ' + + + + + )                                   ! + + + + + + + ~                                   = + + + + + {       ",
"        % ] + + + + + ^                                 / + + + + + + + ( _                                 : + + + + + <       ",
"          : + + + + + @                                 # + + + + + + + + $                               % ] + + + + + [       ",
"          } + + + + + -                               * + + + + + + + + + ;                               ' + + + + + |         ",
"          ' + + + + + )                               ! + + + + 1 + + + + ~                               = + + + + + 2         ",
"          % ] + + + + + ^                             / + + + + > 3 + + + ( _                             4 + + + + + 5         ",
"            4 + + + + + @                             , + + + & 6 7 + + + + $                           % ] + + + + + 8         ",
"            } + + + + + -                           * + + + + 9   0 + + + + ;                           ' + + + + + a           ",
"            ' + + + + + )                           ! + + + + b   c + + + + ~                           } + + + + + d           ",
"            e f + + + + + ^                         / + + + + g   _ h + + + i _                         4 + + + + + j           ",
"              k + + + + + @                         , + + + + l     m + + + + $                       e ] + + + + + 8           ",
"              n + + + + + -                       * + + + + o       p + + + + ;                       ' + + + + + q             ",
"              r + + + + + )                       s + + + + t       u + + + + ~                       } + + + + + v             ",
"              e f + + + + + ^                     { + + + + w       _ ( + + + i _                     k + + + + + x             ",
"                y + + + + + @                     z + + + + l         1 + + + + $                   e f + + + + + A             ",
"                B + + + + + -                   * + + + + C           D + + + + ;                   r + + + + + E               ",
"                r + + + + + )                   s + + + + -           F + + + + ~                   n + + + + + G               ",
"                e H + + + + + ^                 I + + + + @           J K + + + i _                 y + + + + + @               ",
"                  L + + + + + @                 | + + + + A             M + + + + $               e f + + + + + ^               ",
"                  B + + + + + -               [ + + + + N               O + + + + ;               r + + + + + C                 ",
"                  P + + + + + C               < + + + + v               Q + + + + R               B + + + + + t                 ",
"                  e H + + + + + ^             I + + + + x               S T + + + i _             y + + + + + w                 ",
"                    U + + + + + @             | + + + + 8                 V + + + + $           e f + + + + + l                 ",
"                    W + + + + + -           [ + + + + a                   W + + + + ;           r + + + + + X                   ",
"                    P + + + + + C           5 + + + + d                   P + + + + R           B + + + + + t                   ",
"                    Y Z + + + + + ^         2 + + + + 5                   e f + + + i _         L + + + + + `                   ",
"                       .+ + + + + @         ..+ + + + [                     y + + + + $       e H + + + + + l                   ",
"                      W + + + + + -       [ + + + + z                       n + + + + ;       P + + + + + +.                    ",
"                      @.+ + + + + C       5 + + + + {                       ' + + + + R       W + + + + + b                     ",
"                      S Z + + + + + ^     2 + + + + !                       % & + + + i _     U + + + + + g                     ",
"                        V + + + + + @     #.+ + + + *                         $.+ + + + $   e H + + + + & 6                     ",
"                        %.+ + + + + -   [ + + + + &.                          b + + + + ;   P + + + + + 9                       ",
"                        *.+ + + + + C   5 + + + + =.                          g + + + + R   W + + + + + -.                      ",
"                        S T + + + + + ^ 2 + + + + ;.                          l + + + + i _ >.+ + + + + >                       ",
"                          ,.+ + + + + @ #.+ + + + '.                            X + + + + Q Z + + + + & %                       ",
"                          ).+ + + + + !.+ + + + ~.                              t + + + + !.+ + + + + .                         ",
"                          Q + + + + + + + + + + {.                              @ + + + + + + + + + + =                         ",
"                          S ].+ + + + + + + + + 0                               ^ + + + + + + + + + + '                         ",
"                            ^.+ + + + + + + + + c                                 N + + + + + + + + ] %                         ",
"                            ).+ + + + + + + + h _                                 /.+ + + + + + + + 4                           ",
"                            Q + + + + + + + + (.                                  j + + + + + + + + }                           ",
"                            J ].+ + + + + + + _.                                  8 + + + + + + + + r                           ",
"                              :.+ + + + + + + u                                     ..+ + + + + + f e                           ",
"                                                                                                                                ",
"                                                                                                                                ",
"                                                                                                                                ",
"                                                                                                                                ",
"                                                                                                                                ",
"                                                                                                                                ",
"                                                                                                                                ",
"                                                                                                                                "};
