/* XPM */
static char * brick_brown_0_xpm[] = {
"32 32 8 1",
" 	c #301800",
".	c #200000",
"+	c #E07000",
"@	c #C06000",
"#	c #A05000",
"$	c #603000",
"%	c #804000",
"&	c #402000",
"  .   . .        .  .  .  . .   ",
".+@+@++@#$++@#+% $++%++#@%#+@++%",
".@#%##@%%%$@#%$&.@%#%%####%%$%&$",
" #%%%##@%##%%%$&.#%%#$$%%$%$%%$&",
".+##%@#%$%$$%$&$ @##%$%$#%$$&$%$",
" +#%$%#$%&%%$$$& #%$%%$%#%$&$&$&",
".#%$%#%$%$$$&$&&.#$&$$%%$$& &$&&",
" @$ %$%$$&$&$&&& &$%$%$$$& &.&$ ",
" .. .     . ...  .    .  .  .   ",
"+@%@##@%.@#%$&$@%%#%#$&& ##@%#%%",
"%#%%#%%$ @%#%$%#$#%%#%%&.@%##%##",
"$$##%$%%.#%#%#$%$&%$%%$$ %#%%#%%",
"$%#%%%$$ @#%%%$%&$$%%$%&.@%$%$%#",
"$$%$$&$& #%$%$%$$%%$$%$$ %$$$%%$",
"&%%%$$&&.@%%$%$%%&$%$$&& $%$%%$$",
"$&$$&&$& $$$$$&$$&$&$&$$ &$$&$$&",
"    . . .  .. .   . .     . .   ",
" &#%@@%##@#@%@%&.&#@%###@#%@#@%#",
".#@%#$%#%#%#%#%$ @#%#%@%#%####$%",
" +%%#%$%$$#%#%$$ #%%%$#%#%$%%$%$",
".+$#%$#$$%%$&$$& @##$%%$$%$$%%$$",
" #%%$&$%%$$&$&&$.#%%$%$%$$&%$$&&",
" @$$$%$&$$ $&$$&.@%$$$$$& $$$&$$",
" %%%$$&$& .&$$&&.$$$%%&  .$&$&&&",
" .  . .   .. .    . . .. ....   ",
"+%#%@%@&.&%#@##%#@@%@%&& &%#@#%@",
"%$%%#%%%.##%#%%#%%$%%#%&.##%#%##",
"#%$$$%$$ @##%%#%%$$$$%$& #%#%#%$",
"%#%%$$&&.#%#%$%$$%$%$$$$.@#%$%$%",
"#%$%$$&$ @%%#$$$$$%$$%&  @$$#$%$",
"$%%$%&$& #%$$$$  $$ &$ & %$$%&$ ",
"$&&& $&$.@$&&&  $& &$&&$ &$%&&& "};
