/* XPM */
static char * mun_xpm[] = {
"5 23 6 1",
" 	c #272727",
".	c #3B3B3B",
"+	c #606060",
"@	c #ADADAD",
"#	c #4D4D4D",
"$	c #878787",
" ... ",
"+@@@+",
"+@@@+",
"+@@@+",
"+@@@+",
"+@@@+",
"+@@@+",
"+@@@+",
"+@@@+",
"+@@@+",
"+@@@+",
"+@@@+",
"+@@@+",
"+@@@+",
"+@@@+",
"+@@@+",
"+@@@+",
"+@@@+",
"+@@@+",
"+@@@+",
"+@@@+",
"+@@@+",
"#$$$#"};
