/* XPM */
static char * grunge_wall_texture_xpm[] = {
"64 64 73 1",
" 	c #CACACA",
".	c #CCCCCC",
"+	c #C9C9C9",
"@	c #C7C7C7",
"#	c #C6C6C6",
"$	c #C2C2C2",
"%	c #C1C1C1",
"&	c #BBBBBB",
"*	c #B4B4B4",
"=	c #BEBEBE",
"-	c #BFBFBF",
";	c #BCBCBC",
">	c #BDBDBD",
",	c #C0C0C0",
"'	c #C4C4C4",
")	c #C5C5C5",
"!	c #C8C8C8",
"~	c #CDCDCD",
"{	c #CECECE",
"]	c #CBCBCB",
"^	c #CFCFCF",
"/	c #D2D2D2",
"(	c #D4D4D4",
"_	c #D1D1D1",
":	c #D0D0D0",
"<	c #D9D9D9",
"[	c #C3C3C3",
"}	c #D7D7D7",
"|	c #D3D3D3",
"1	c #DADADA",
"2	c #D5D5D5",
"3	c #D6D6D6",
"4	c #D8D8D8",
"5	c #DDDDDD",
"6	c #DCDCDC",
"7	c #DBDBDB",
"8	c #DEDEDE",
"9	c #E0E0E0",
"0	c #DFDFDF",
"a	c #E1E1E1",
"b	c #E3E3E3",
"c	c #E2E2E2",
"d	c #E5E5E5",
"e	c #E4E4E4",
"f	c #E6E6E6",
"g	c #E7E7E7",
"h	c #E8E8E8",
"i	c #E9E9E9",
"j	c #B7B7B7",
"k	c #B6B6B6",
"l	c #BABABA",
"m	c #ACACAC",
"n	c #A9A9A9",
"o	c #A5A5A5",
"p	c #B2B2B2",
"q	c #B9B9B9",
"r	c #B8B8B8",
"s	c #ADADAD",
"t	c #ABABAB",
"u	c #B1B1B1",
"v	c #A7A7A7",
"w	c #AAAAAA",
"x	c #A6A6A6",
"y	c #B0B0B0",
"z	c #B3B3B3",
"A	c #AFAFAF",
"B	c #AEAEAE",
"C	c #B5B5B5",
"D	c #A4A4A4",
"E	c #9C9C9C",
"F	c #A3A3A3",
"G	c #9F9F9F",
"H	c #A1A1A1",
" .+@##$#@%&*=-;==>;,%$')!+..~~{~]@!@)+^{+!.{!!+!@@+ !@!+^{/(_{:<",
"::~ [)#!@!%%'!''+'@~.! ] ^^_:/}}^:^~{~_|^/:{] +@!]]~]+ ]]:|/^:|1",
"(_~ #!!.~ )$!#! !'!{^^^^_((233<}|_(/(321<34//_~..:||_{^/|||_|245",
"}/:^~ +^/^:+#@~~]#!/__|/(}43}<<422(243}61}4322/:^23((2|(|(}4}<78",
"1(176|]^3(2(.{2^!+{(}342<<67571688<67<15<672}3|(2(2(2(2}31777799",
"4/7763/(}33(/(</{:/77161460855609a6a0505566}3}/(223}<}}1/80589ab",
"7_<<<33}}}|{/}43_/<05089589800500c9a009a980512(((2<11}76_09859ac",
"54412(3222.^/344335ddcdbcaecc959758808abcac97<2|}}47}47819aa0acb",
"014<4<}}<}:^:|}}<28fgegeeedeeeeb006869efedda5754144<77aa8cbcbcbc",
"6<14<4435<_{|3568<9hhfddddggfefffe9669ffbdea8685106558ba9bedbbcb",
"5117715157(|<1560aeihgdbbfggfddihfc89egdffeb99ca0aa809eeabeebedd",
"8770885575<3}7a009dhggfebddhhedfihecbbdecbfdcceeebba9bebebddeeff",
"67aca0800671189cacdfgfdeabeddedgiifeabedb9eddeddbbedcbecbebddedd",
"01cbc9a9987778c000bbgfgd9cbebeefhgba9eedeedefdddbeefebebeeedffff",
"caebbcc9a55569aaa5cbfdggcbabcacdhfb08ceeeefeeddgdccbbbfffeefffhh",
"ebdeeecaa0000aceaaedgdffbcccaabfhea80beebbbddffgfece0dgfdffgffhh",
"ffdfddbba56689cc99dfhbffbaccccbghea85bebacebffffdebbcfgggghgghhg",
"fdddffddc05599aca9ffgffgebbbc9edgdcacbdfeceedeeddddedfghdgggghhh",
"fddfdffdb060acaa9cffffhgfe9b9cbfhgb9a9fgeeebebeffddbedgggfgfgggg",
"eedfgfebea0acbeaceffffhfgdebcbdfhfbaceddedbbdddfddeecafdffffgggg",
"cbdebdbebc9aacecbeddfedhgfeebedfhggacbedeeccbeeededcbadbedffgfgg",
"acbbbddedb9a9cecabffeedggfdddedghgfecdddbabbbccedbbcacfbbbdfffgg",
"bbbceffddb9a0ceebefgeedfhfeffdghihffgfdebaeefbbefbbcabdbbefffghg",
"c9aedfdbaa6099bdbeggcfdfghededgiiggdddde9bbbdecbeeecaadbbbfffdgg",
"cacebdba905809adebffddfgggeebdghhgfbdfdbccbbeebedebaaaebcaedffhf",
"beeeedbaa888aabddbbfdedfggddddghfdbccdebbbccbbeebcbc9aeeebdfdfff",
"bbebbbcca900ccegfbfddgdffdedddghdc5c09acca009cbaacbc8abeeeffdddf",
"eedbcbbc9909cbdbdegfffffffddfdfggfec00abea9a9ccbccca8aeccbffbedd",
"dddeedcec999cefbedgfffffggfdfdfffgfdc00cbebebecbbbccaccccbdfddff",
"ebeebbdec909adgdddhgfffefhfddgffghdec999acedfdcbbcbbba8aebefedgg",
"bccedbddc90aacfffegffffcdffffgfghhfeb0ccaeddfdbddcccca0bdeddedfg",
"bbbeeeedba99aabeeffffgfeffgffdghhhfffddebbdffdeedcaa50abddddfdgg",
"eb0bbbedca90cabebdggggdedfddfdfgiiggghfdeedfdddddc9a85acffffffgg",
"ec9aceedb99a9aabbbggfffbeebdedfghhhggffdefddddcdddc9c9acdffggfgg",
"eecbbbbbba9a9acaebggffdbbeeddefggghfddgfeffdfdbeedecaaacddffggfh",
"bdcbeebaaaa00acbdbgfdefdeedfffggghffedfgdfgddebebdbcaaabdeffghgh",
"ceaceebaaca09aabeefeeeefdddebdfgggddebffefggdeeeeecbaacbeebdfggh",
"ddbbbebcca00aacceffcceebdddebbedggddecffdfgfdebdeccc9cbabbeddffg",
"ddbcbccaa08accaedffebbebedfddeffhgddeefgfddddeecdbca9aaceeddgffg",
"cfbbca999c0accebedfebeebeffgddghigfeeefdfddddeb9dcaaa9abeedefdfg",
"efabbca9ac00aebeeedecebabfdfdfghihfddbgfdddeffbbdecca9bbeffffddg",
"cdcacccaaa90cbdgddfebccccefggfgiihgdebfgbebefddeddbeddfffffddggg",
"bdaacb9c9ba0cdffdedbbcbcbddffgghhggfedfgdeeeddebbe9abedddddddfbf",
"ceccbbacac9aaeeefffebccccedffgghdffbceddfbcddddeeeaaecceddfdfffg",
"bbeebeebcb0aeeeffgffccbbcedddddhfffbcbddafdfgfdeeeeeecbddfghfggh",
"cbbebeedeec9addgfffdbdaceebeeddhhfbccaefefdfgfeeeaccc0bdeggggghh",
"ceebeeeedbc90effdfgfeeabebcdeeeggd0cbbeebbdggfbbea9909ccddghgggh",
"aebbbdddeca08cfgdghgeda9cbbccbbhgc9cbbeecebffdbeb08890ccbefghhhi",
"ce9abbecbb0689ddffgffdecbcca5begfeacbeeeedbdeeeeea90aacbbbeffgfg",
"ee9abccbbc8686aeddffdfaaaaa00aedecabbdddffddbebeb0089aacacbdffbe",
"cea9ccacaa9808acedfgdgeaacb9acfdfdedfddbddffddebcca0999caabede50",
"0c0aac9c9c95800acddfddcabbaaaeffdfdffddbeddffddeebc9900990ceea<7",
"9b9acb0b9c905a0a0bdfdfecbecccedfeddggdfdbefggfbece988988cccb0118",
"ccccbecabc6860860aeeedfffgec9eefgfdfffdccbfghfeecaa989099c904448",
"ccccebb99b05616<878bbggfggebcbedffdgdgfeccegfc9eaa8668998857}<<8",
"0beeebc8a966<347766aehhgggdbbc99dfddcdfbadbgda9c508716555756565a",
"ccccbba881<1<3<<}100bghfgfdddebabeeedebccbcddb8980977<51<<}45175",
"9aa9aaa41731}}2:24451bdddddedeeaabbcacc88599b065765<}3<2<4(41627",
"a0099a8232}3:|/:}/6}(acbbddefbee9a900aa7<7189411<<<}32(23:}771(}",
"68188<}(||2:]:_|2377<cbcbebcbcbca5506984|<4722__(/^{{|/| ' }^_:(",
"}}((}2^~..:.]^~[!./(198cbcaa80015<<}243~ ~^:/.[.^@@''])!,jkl>,!:",
"_]..!]@)$,,%[]%*l=++:17552<4}1321}^{{^.@[,+ +@, +=$@%&j**mnomp&)",
"'q,l$'=qkrjrq>jspj;&@^: /:@+!^:~/:#[#);jjrk-$&>=ktl=unmvwxoottyq",
"qtsz;;jqAuABmBvxBupyl;kC;%l*qrj===rrqjmwwvnnBnmDDEFAGHDFFDmsxnyu"};
